<?xml version="1.0" standalone="no"?>
<!DOCTYPE svg PUBLIC "-//W3C//DTD SVG 20010904//EN"
 "http://www.w3.org/TR/2001/REC-SVG-20010904/DTD/svg10.dtd">
<svg version="1.0" xmlns="http://www.w3.org/2000/svg"
 width="1231.000000pt" height="341.000000pt" viewBox="0 0 1231.000000 341.000000"
 preserveAspectRatio="xMidYMid meet">
<metadata>
Created by potrace 1.16, written by Peter Selinger 2001-2019
</metadata>
<g transform="translate(0.000000,341.000000) scale(0.100000,-0.100000)"
fill="#000000" stroke="none">
<path d="M6989 2778 c-17 -18 -43 -50 -57 -72 -15 -23 -30 -43 -33 -46 -15
-12 -28 -50 -23 -64 5 -14 31 -16 181 -16 203 0 204 1 269 97 21 32 42 60 47
61 14 7 7 50 -10 57 -10 4 -91 9 -180 11 l-163 3 -31 -31z"/>
<path d="M2026 2475 c-26 -15 -52 -46 -77 -90 -22 -37 -39 -70 -39 -74 0 -13
-62 -126 -89 -160 -33 -44 -111 -179 -111 -194 0 -5 -14 -33 -32 -60 -50 -78
-45 -81 163 -85 195 -3 214 1 258 57 28 35 91 158 91 178 0 11 85 139 106 160
8 8 14 22 15 31 1 26 81 153 109 174 14 10 39 20 55 21 24 2 31 -2 33 -20 4
-30 -58 -155 -118 -237 -28 -39 -69 -107 -91 -152 -22 -46 -55 -104 -72 -130
-50 -76 -44 -79 177 -82 l187 -2 38 37 c41 41 121 171 121 198 0 16 24 68 41
89 44 55 63 84 113 169 32 54 67 104 79 111 69 43 95 21 68 -59 -26 -78 -60
-137 -130 -221 -5 -6 -39 -64 -76 -130 -37 -65 -71 -121 -75 -124 -14 -11 -20
-43 -9 -56 18 -22 386 -20 417 2 12 8 22 19 22 24 0 5 19 40 42 77 22 38 54
97 70 132 16 34 33 68 38 75 47 58 64 83 109 160 28 49 51 94 51 101 0 6 7 20
15 31 19 25 19 60 -1 68 -9 3 -340 6 -737 6 l-722 -1 -39 -24z"/>
<path d="M7010 2490 c-148 -4 -179 -8 -202 -23 -18 -13 -50 -64 -93 -150 -35
-73 -89 -170 -119 -217 -93 -147 -146 -242 -146 -261 0 -32 34 -39 189 -39
160 0 190 6 234 48 30 28 107 152 107 172 0 14 96 164 115 180 8 7 15 19 15
26 0 7 21 48 46 91 52 87 75 145 66 160 -12 17 -33 18 -212 13z"/>
<path d="M3638 2473 c-14 -9 -33 -33 -42 -52 -19 -43 -102 -202 -113 -216 -53
-68 -163 -247 -163 -266 0 -5 -11 -27 -25 -47 -30 -44 -32 -68 -6 -82 13 -6
173 -10 451 -10 468 0 471 0 520 56 34 39 150 239 150 258 0 9 4 16 9 16 5 0
14 12 20 28 6 15 29 54 51 87 21 33 39 65 39 72 1 7 17 39 37 73 60 103 97 95
-436 97 -419 2 -468 1 -492 -14z m490 -66 c4 -21 -68 -172 -106 -220 -41 -52
-48 -64 -102 -172 -28 -55 -58 -107 -66 -116 -26 -29 -114 -32 -114 -4 0 16
120 229 131 233 5 2 9 12 9 21 0 10 8 25 18 35 11 9 40 59 67 112 34 68 57
102 79 115 37 23 79 21 84 -4z"/>
<path d="M4690 2466 c-24 -16 -55 -58 -97 -135 -35 -61 -63 -115 -63 -120 0
-5 -7 -14 -15 -21 -8 -7 -15 -23 -15 -36 l0 -24 248 -2 247 -3 -2 -40 c-1 -43
-55 -145 -96 -183 -30 -28 -68 -36 -90 -20 -17 13 -17 17 12 72 38 71 40 103
8 112 -13 3 -99 4 -190 2 -150 -3 -168 -5 -194 -24 -15 -12 -30 -29 -31 -39
-2 -10 -24 -51 -49 -92 -44 -71 -45 -75 -28 -94 17 -18 35 -19 457 -19 475 0
492 2 520 54 7 14 37 66 66 116 28 49 52 96 52 102 0 7 9 24 20 38 11 14 20
35 20 48 l0 22 -240 0 c-197 0 -242 3 -246 14 -8 20 20 107 49 154 35 54 73
82 112 82 47 0 51 -23 15 -86 -33 -59 -38 -99 -14 -108 9 -3 91 -6 182 -6 163
0 168 1 205 25 20 14 37 32 37 40 0 8 18 44 39 79 39 62 45 77 42 104 -1 9
-101 12 -464 12 l-462 0 -35 -24z"/>
<path d="M5759 2473 c-15 -9 -46 -51 -70 -92 -23 -42 -60 -105 -81 -140 -21
-34 -38 -74 -38 -87 l0 -24 248 -2 c291 -3 280 3 207 -124 -52 -92 -77 -119
-120 -127 -54 -10 -60 3 -35 69 47 128 52 124 -152 124 -113 0 -168 -4 -192
-14 -33 -14 -96 -91 -96 -117 0 -7 -12 -30 -26 -50 -29 -43 -26 -73 9 -83 12
-3 215 -6 450 -6 354 0 433 2 456 14 31 16 91 80 91 97 0 10 94 180 122 220 6
9 8 24 5 33 -6 14 -33 16 -245 16 -185 0 -242 3 -250 13 -8 10 1 35 38 100 28
48 50 90 50 95 0 13 57 42 84 42 22 0 26 -5 26 -28 0 -15 -7 -38 -16 -50 -9
-13 -17 -44 -17 -70 l-2 -47 160 -3 c191 -3 216 0 252 37 32 32 98 183 89 206
-5 13 -63 15 -463 15 -407 -1 -461 -2 -484 -17z"/>
<path d="M7545 2319 c381 -20 666 -46 915 -84 52 -8 129 -20 170 -25 41 -6
103 -15 136 -20 34 -6 76 -10 94 -10 18 0 63 -9 99 -20 36 -10 95 -24 131 -29
106 -17 293 -77 428 -137 29 -13 55 -24 58 -24 13 0 230 -105 242 -117 7 -7
17 -13 21 -13 4 0 16 -8 27 -17 41 -37 103 -83 111 -83 5 0 27 -19 48 -42 95
-102 124 -204 90 -309 -32 -97 -38 -103 -306 -308 -69 -53 -567 -244 -669
-257 -25 -4 -88 -16 -140 -29 -52 -12 -151 -30 -220 -40 -69 -9 -197 -28 -285
-41 -315 -46 -727 -83 -960 -85 -89 -1 -95 -2 -55 -11 59 -12 369 -2 695 23
240 18 470 45 720 84 55 9 145 22 200 31 55 8 143 24 195 35 52 12 115 25 140
29 76 14 329 100 428 146 52 24 111 48 132 54 20 5 52 20 71 33 19 12 63 40
98 61 126 77 215 174 247 268 25 75 15 163 -25 228 -17 27 -31 53 -31 57 0 13
-103 104 -164 146 -33 22 -107 62 -165 89 -58 28 -142 67 -186 88 -76 36 -391
140 -426 140 -9 0 -51 9 -95 20 -74 20 -121 27 -304 50 -41 5 -111 16 -155 24
-326 59 -926 108 -1290 104 l-170 -1 150 -8z"/>
<path d="M7410 2068 c-30 -20 -160 -215 -160 -239 0 -20 -117 -221 -132 -227
-5 -2 -8 -11 -8 -19 0 -9 -29 -67 -65 -129 -36 -62 -65 -117 -65 -122 0 -4
-20 -35 -44 -69 -63 -86 -98 -159 -94 -196 l3 -32 145 -3 c131 -3 472 12 528
24 18 3 22 11 22 39 l0 35 -130 0 c-71 0 -130 4 -130 8 0 4 24 44 54 87 70
104 185 302 224 387 17 37 49 85 71 107 l41 41 89 0 c50 0 92 3 94 8 3 4 8 26
12 50 l7 42 -59 0 c-35 0 -67 6 -78 14 -18 13 -17 17 28 90 77 125 75 126
-149 126 -161 0 -173 -1 -204 -22z"/>
<path d="M4542 1693 c-27 -19 -102 -125 -102 -145 0 -7 -7 -22 -15 -32 -8 -11
-15 -25 -15 -32 0 -18 -78 -151 -125 -214 -61 -80 -117 -186 -113 -212 3 -23
4 -23 183 -26 218 -3 221 -1 291 115 25 43 59 101 76 128 68 110 138 235 138
245 0 23 51 89 83 109 63 39 92 19 63 -43 -9 -19 -16 -39 -16 -45 0 -12 -142
-263 -174 -306 -44 -60 -86 -145 -86 -175 l0 -30 180 0 c215 0 222 2 276 92
20 35 57 93 81 129 23 37 43 72 43 78 0 7 27 59 60 116 33 57 60 110 60 118 0
7 12 25 28 39 71 67 139 63 112 -7 -5 -14 -38 -76 -72 -138 -87 -157 -88 -157
-138 -233 -49 -74 -70 -124 -70 -167 l0 -27 188 0 c150 0 192 3 209 15 22 16
73 96 73 116 0 6 17 37 39 69 21 31 57 94 79 141 23 46 64 122 93 169 28 47
58 97 67 111 8 14 13 33 9 42 -6 16 -64 17 -744 16 -664 0 -740 -2 -761 -16z"/>
<path d="M6160 1696 c-27 -15 -31 -21 -167 -249 -50 -84 -99 -159 -107 -166
-9 -8 -16 -19 -16 -25 0 -6 -21 -52 -46 -102 -29 -55 -45 -97 -41 -107 6 -16
45 -17 457 -17 377 0 456 2 479 15 19 9 44 41 70 89 22 40 65 109 96 151 30
43 72 112 91 154 20 42 59 111 86 153 82 128 117 118 -420 118 -368 -1 -462
-3 -482 -14z m479 -60 c9 -11 6 -24 -17 -63 -16 -26 -58 -97 -93 -158 -35 -60
-72 -119 -82 -130 -10 -11 -30 -42 -43 -70 -38 -74 -82 -117 -119 -113 -20 2
-31 9 -33 22 -4 19 30 89 55 114 7 7 13 18 13 23 0 6 11 25 24 42 13 18 44 73
69 122 73 147 90 172 131 199 45 29 78 33 95 12z"/>
<path d="M7950 1692 c-42 -23 -80 -74 -122 -162 -42 -90 -118 -220 -145 -250
-13 -14 -23 -28 -23 -33 0 -4 -21 -43 -46 -86 -28 -48 -44 -88 -42 -103 l3
-23 459 -3 c387 -2 463 0 481 12 20 13 85 113 137 207 9 17 23 38 30 47 8 9
45 71 83 137 37 66 83 144 102 173 20 30 33 62 31 75 l-3 22 -455 3 c-428 2
-457 1 -490 -16z m475 -61 c4 -13 -4 -35 -20 -60 -14 -22 -25 -45 -25 -49 0
-13 -112 -200 -181 -304 -60 -89 -96 -121 -132 -116 -33 5 -32 33 2 88 17 28
31 57 31 66 0 8 8 23 18 34 9 10 55 84 101 165 61 106 95 154 120 171 43 29
77 31 86 5z"/>
<path d="M8977 1690 c-16 -10 -40 -41 -53 -70 -13 -29 -49 -96 -80 -151 -83
-146 -92 -139 186 -139 126 0 235 -3 244 -6 22 -9 20 -30 -8 -67 -13 -18 -31
-48 -39 -67 -20 -50 -70 -90 -113 -90 -29 0 -34 3 -34 25 0 13 13 47 30 75 47
80 47 80 -171 80 l-189 0 -40 -36 c-21 -19 -42 -45 -45 -57 -4 -12 -18 -43
-31 -70 -16 -29 -23 -55 -19 -67 6 -20 16 -20 459 -20 l453 0 33 23 c19 12 55
59 84 107 28 47 68 107 89 134 20 27 37 56 37 65 0 38 -17 41 -262 41 -272 0
-267 -1 -229 78 59 120 123 185 166 168 20 -7 19 -23 -9 -92 -38 -94 -39 -94
174 -94 l179 0 31 33 c18 17 39 48 48 67 10 19 27 52 40 72 15 24 21 45 17 58
-6 20 -14 20 -463 19 -424 0 -459 -2 -485 -19z"/>
</g>
</svg>
