<?xml version="1.0" encoding="UTF-8"?>
<!DOCTYPE svg PUBLIC "-//W3C//DTD SVG 1.1//EN" "http://www.w3.org/Graphics/SVG/1.1/DTD/svg11.dtd">
<svg xmlns="http://www.w3.org/2000/svg" version="1.1" width="834px" height="232px" style="shape-rendering:geometricPrecision; text-rendering:geometricPrecision; image-rendering:optimizeQuality; fill-rule:evenodd; clip-rule:evenodd" xmlns:xlink="http://www.w3.org/1999/xlink">
<g><path style="opacity:1" fill="#fdfdfd" d="M -0.5,-0.5 C 277.5,-0.5 555.5,-0.5 833.5,-0.5C 833.5,76.8333 833.5,154.167 833.5,231.5C 555.5,231.5 277.5,231.5 -0.5,231.5C -0.5,154.167 -0.5,76.8333 -0.5,-0.5 Z"/></g>
<g><path style="opacity:1" fill="#080808" d="M 496.5,13.5 C 507.222,13.1254 517.889,13.6254 528.5,15C 529.059,15.7247 529.392,16.5581 529.5,17.5C 526.415,23.0854 522.415,27.9187 517.5,32C 507.212,33.5048 496.878,33.8382 486.5,33C 484.145,31.1354 483.978,28.9688 486,26.5C 489.508,22.1361 493.008,17.8028 496.5,13.5 Z"/></g>
<g><path style="opacity:1" fill="#030303" d="M 56.5,40.5 C 100.167,40.5 143.833,40.5 187.5,40.5C 186.443,47.6305 183.943,54.2972 180,60.5C 171.073,72.6764 163.406,85.6764 157,99.5C 155.933,100.191 154.766,100.691 153.5,101C 142.167,101.667 130.833,101.667 119.5,101C 118.941,100.275 118.608,99.4419 118.5,98.5C 124.648,86.2029 131.815,74.5362 140,63.5C 143.141,58.2439 144.974,52.5772 145.5,46.5C 141.574,46.0466 138.408,47.3799 136,50.5C 127.037,63.1196 119.37,76.4529 113,90.5C 110.287,94.0916 107.453,97.5916 104.5,101C 92.807,101.746 81.1403,101.58 69.5,100.5C 75.0781,86.6816 82.2447,73.6816 91,61.5C 93.7295,56.81 95.5628,51.81 96.5,46.5C 92.1973,45.7962 88.6973,47.1295 86,50.5C 77.5992,64.5781 69.5992,78.9114 62,93.5C 60.5422,95.96 58.7089,98.1266 56.5,100C 45.9066,101.595 35.24,101.928 24.5,101C 22.7139,100.804 21.3805,99.9705 20.5,98.5C 29.812,80.5427 39.6453,62.876 50,45.5C 51.9651,43.4497 54.1318,41.783 56.5,40.5 Z"/></g>
<g><path style="opacity:1" fill="#030303" d="M 198.5,41.5 C 224.169,41.3334 249.835,41.5 275.5,42C 278.119,42.1515 280.453,42.9848 282.5,44.5C 275,58.1667 267.5,71.8333 260,85.5C 257.112,90.7755 253.612,95.6089 249.5,100C 247.5,100.667 245.5,101.333 243.5,102C 217.494,102.833 191.494,102.667 165.5,101.5C 164.515,99.9017 164.349,98.235 165,96.5C 171.245,84.3361 178.245,72.6694 186,61.5C 188.955,53.8909 193.121,47.2242 198.5,41.5 Z"/></g>
<g><path style="opacity:1" fill="#050505" d="M 292.5,41.5 C 320.074,41.1716 347.574,41.505 375,42.5C 375.667,43.5 375.667,44.5 375,45.5C 372.651,50.1978 370.318,54.8644 368,59.5C 366.048,61.8936 363.548,63.3936 360.5,64C 350.5,64.6667 340.5,64.6667 330.5,64C 329.409,61.9361 329.242,59.7695 330,57.5C 332.846,54.363 334.013,50.863 333.5,47C 331.5,46.3333 329.5,46.3333 327.5,47C 320.33,52.3236 316.663,59.4902 316.5,68.5C 330.833,68.5 345.167,68.5 359.5,68.5C 356.03,79.1085 351.196,89.1085 345,98.5C 342.808,100.235 340.308,101.402 337.5,102C 311.833,102.667 286.167,102.667 260.5,102C 258.675,100.534 258.175,98.7008 259,96.5C 261.588,92.326 263.921,87.9926 266,83.5C 267.637,81.1898 269.804,79.6898 272.5,79C 282.5,78.3333 292.5,78.3333 302.5,79C 304.363,80.4178 304.863,82.2511 304,84.5C 301.173,87.6441 300.007,91.1441 300.5,95C 305.603,95.9123 309.436,94.079 312,89.5C 315.272,84.6303 317.106,79.2969 317.5,73.5C 302.833,73.5 288.167,73.5 273.5,73.5C 273.34,71.8008 273.506,70.1341 274,68.5C 277.919,62.3303 281.586,55.9969 285,49.5C 287.028,46.3078 289.528,43.6411 292.5,41.5 Z"/></g>
<g><path style="opacity:1" fill="#040404" d="M 455.5,63.5 C 445.5,63.5 435.5,63.5 425.5,63.5C 425.5,61.5 425.5,59.5 425.5,57.5C 426.917,53.9975 427.584,50.3309 427.5,46.5C 423.574,46.0466 420.408,47.3799 418,50.5C 415.228,54.9413 412.894,59.608 411,64.5C 410.316,65.7839 410.483,66.9505 411.5,68C 425.865,68.2172 440.198,68.7172 454.5,69.5C 450.479,79.2084 445.645,88.5417 440,97.5C 437.742,99.4296 435.242,100.93 432.5,102C 406.5,102.667 380.5,102.667 354.5,102C 353.422,101.326 352.755,100.326 352.5,99C 354.099,90.0861 358.765,83.4194 366.5,79C 376.167,78.3333 385.833,78.3333 395.5,79C 396.574,79.7387 397.241,80.7387 397.5,82C 395.856,86.4292 394.523,90.9292 393.5,95.5C 398.874,96.0631 403.041,94.0631 406,89.5C 408.254,85.9934 410.254,82.3267 412,78.5C 412.781,77.0563 412.614,75.723 411.5,74.5C 397.215,73.5171 382.882,73.1837 368.5,73.5C 369.443,68.5937 371.276,63.927 374,59.5C 377.308,53.0504 381.474,47.217 386.5,42C 413.833,41.3333 441.167,41.3333 468.5,42C 469.554,43.3876 469.72,44.8876 469,46.5C 467.106,51.392 464.772,56.0587 462,60.5C 460.157,62.1712 457.991,63.1712 455.5,63.5 Z"/></g>
<g><path style="opacity:1" fill="#030303" d="M 481.5,41.5 C 492.748,41.1793 503.915,41.5126 515,42.5C 515.122,44.1686 514.788,45.8353 514,47.5C 509.09,57.6597 503.423,67.3264 497,76.5C 493.545,85.2545 488.712,93.0878 482.5,100C 475.643,101.912 468.643,102.745 461.5,102.5C 456.722,102.609 452.056,102.109 447.5,101C 446.978,100.439 446.645,99.772 446.5,99C 456.385,82.0977 465.885,64.9311 475,47.5C 476.436,44.5581 478.603,42.5581 481.5,41.5 Z"/></g>
<g><path style="opacity:1" fill="#f4f4f4" d="M 235.5,46.5 C 237.948,46.0101 239.615,46.8434 240.5,49C 237.417,58.0029 232.917,66.1696 227,73.5C 223.232,80.9257 219.066,88.0924 214.5,95C 211.854,95.4974 209.187,95.6641 206.5,95.5C 206.34,93.8008 206.506,92.1341 207,90.5C 214.65,76.5348 222.817,62.8681 231.5,49.5C 232.901,48.4793 234.235,47.4793 235.5,46.5 Z"/></g>
<g><path style="opacity:1" fill="#505050" d="M 573.5,56.5 C 567.974,56.1786 562.64,56.5119 557.5,57.5C 550.169,57.0478 542.835,56.5478 535.5,56C 548.34,55.1733 561.007,55.34 573.5,56.5 Z"/></g>
<g><path style="opacity:1" fill="#090909" d="M 557.5,57.5 C 562.64,56.5119 567.974,56.1786 573.5,56.5C 622.003,58.7295 670.003,64.8962 717.5,75C 737.975,81.4036 757.642,89.737 776.5,100C 787.602,105.769 795.102,114.602 799,126.5C 799.929,139.038 795.429,149.205 785.5,157C 772.207,167.112 757.54,174.778 741.5,180C 733.758,182.469 726.092,185.136 718.5,188C 658.571,201.408 597.904,207.741 536.5,207C 588.72,205.078 640.387,198.745 691.5,188C 706.656,182.726 721.656,177.06 736.5,171C 748.498,164.413 759.331,156.247 769,146.5C 776.273,133.216 774.606,121.216 764,110.5C 751.86,100.507 738.36,92.6737 723.5,87C 703.565,78.4797 682.898,72.4797 661.5,69C 639.172,66.0008 616.838,63.0008 594.5,60C 582.166,59.1 569.833,58.2666 557.5,57.5 Z"/></g>
<g><path style="opacity:1" fill="#595959" d="M 425.5,57.5 C 425.5,59.5 425.5,61.5 425.5,63.5C 435.5,63.5 445.5,63.5 455.5,63.5C 445.347,64.4942 435.014,64.8276 424.5,64.5C 424.198,61.9407 424.532,59.6074 425.5,57.5 Z"/></g>
<g><path style="opacity:1" fill="#040404" d="M 535.5,76.5 C 544.506,76.3336 553.506,76.5002 562.5,77C 563.872,77.4017 565.205,77.9017 566.5,78.5C 567.583,79.365 567.749,80.365 567,81.5C 564.5,85.8333 562,90.1667 559.5,94.5C 560.381,95.9705 561.714,96.8038 563.5,97C 566.482,97.498 569.482,97.6646 572.5,97.5C 572.167,100.167 571.833,102.833 571.5,105.5C 560.658,103.01 552.491,106.343 547,115.5C 539.05,131.241 530.217,146.407 520.5,161C 528.159,161.5 535.826,161.666 543.5,161.5C 543.945,164.365 543.278,166.865 541.5,169C 521.517,170.166 501.517,170.666 481.5,170.5C 481.351,167.393 481.851,164.393 483,161.5C 491.378,148.745 498.711,135.412 505,121.5C 507,118.833 509,116.167 511,113.5C 516.141,101.212 522.807,89.8782 531,79.5C 532.652,78.6006 534.152,77.6006 535.5,76.5 Z"/></g>
<g><path style="opacity:1" fill="#030303" d="M 423.5,110.5 C 450.543,110.044 477.543,110.544 504.5,112C 504.957,112.414 505.291,112.914 505.5,113.5C 495.597,131.558 485.097,149.225 474,166.5C 472.681,168.487 470.848,169.654 468.5,170C 441.502,170.5 414.502,170.667 387.5,170.5C 389.243,163.113 392.077,156.113 396,149.5C 403.583,138.002 410.917,126.335 418,114.5C 419.5,112.531 421.333,111.198 423.5,110.5 Z"/></g>
<g><path style="opacity:1" fill="#515151" d="M 582.5,111.5 C 609.662,110.502 636.995,110.169 664.5,110.5C 664.768,112.099 664.434,113.432 663.5,114.5C 663.5,113.5 663.5,112.5 663.5,111.5C 636.5,111.5 609.5,111.5 582.5,111.5 Z"/></g>
<g><path style="opacity:1" fill="#040404" d="M 374.5,170.5 C 364.5,170.5 354.5,170.5 344.5,170.5C 344.5,168.5 344.5,166.5 344.5,164.5C 349.784,153.94 355.617,143.607 362,133.5C 365.318,128.21 367.485,122.543 368.5,116.5C 363.773,116.048 359.94,117.715 357,121.5C 349.781,137.193 341.448,152.193 332,166.5C 329.303,169.87 325.803,171.204 321.5,170.5C 312.5,170.5 303.5,170.5 294.5,170.5C 294.5,169.167 294.5,167.833 294.5,166.5C 294.892,164.821 295.392,163.154 296,161.5C 302.064,152.43 307.731,143.097 313,133.5C 316.257,128.227 318.423,122.561 319.5,116.5C 314.055,116.425 309.888,118.758 307,123.5C 299.455,139.697 290.288,154.864 279.5,169C 267.91,170.436 256.243,170.936 244.5,170.5C 244.705,167.012 245.539,163.679 247,160.5C 255.995,148.828 263.329,136.161 269,122.5C 271.234,118.542 274.067,115.042 277.5,112C 299.581,110.843 321.747,110.343 344,110.5C 365.875,110.505 387.709,110.839 409.5,111.5C 410.614,112.723 410.781,114.056 410,115.5C 400.199,133.609 390.032,151.443 379.5,169C 377.975,170.009 376.308,170.509 374.5,170.5 Z"/></g>
<g><path style="opacity:1" fill="#020202" d="M 582.5,111.5 C 609.5,111.5 636.5,111.5 663.5,111.5C 663.5,112.5 663.5,113.5 663.5,114.5C 654.113,132.271 643.946,149.605 633,166.5C 631.786,168.049 630.286,169.215 628.5,170C 601.169,170.5 573.835,170.667 546.5,170.5C 549.667,159.491 554.834,149.491 562,140.5C 566.032,130.927 571.198,122.094 577.5,114C 579.078,112.906 580.745,112.072 582.5,111.5 Z"/></g>
<g><path style="opacity:1" fill="#060606" d="M 676.5,110.5 C 702.502,110.333 728.502,110.5 754.5,111C 755.554,112.388 755.72,113.888 755,115.5C 752.124,121.423 748.624,126.923 744.5,132C 733.5,132.667 722.5,132.667 711.5,132C 710.941,131.275 710.608,130.442 710.5,129.5C 711.821,125.208 712.821,120.875 713.5,116.5C 709.336,116.143 706.169,117.81 704,121.5C 701.162,125.172 698.829,129.172 697,133.5C 696.316,134.784 696.483,135.951 697.5,137C 711.765,138.282 726.099,138.949 740.5,139C 741.059,139.725 741.392,140.558 741.5,141.5C 736.2,151.923 729.534,161.423 721.5,170C 694.169,170.5 666.835,170.667 639.5,170.5C 640.032,161.744 643.698,154.577 650.5,149C 661.906,148.067 673.239,148.4 684.5,150C 684.957,150.414 685.291,150.914 685.5,151.5C 682.424,155.315 680.757,159.648 680.5,164.5C 685.347,165.16 689.181,163.493 692,159.5C 695.305,154.9 697.472,149.9 698.5,144.5C 684.451,144.816 670.451,144.483 656.5,143.5C 655.369,141.926 655.202,140.259 656,138.5C 660.536,129.256 665.703,120.423 671.5,112C 673.382,111.802 675.048,111.302 676.5,110.5 Z"/></g>
<g><path style="opacity:1" fill="#f3f3f3" d="M 456.5,116.5 C 458.833,116.5 461.167,116.5 463.5,116.5C 463.201,120.105 462.035,123.439 460,126.5C 453.082,137.334 446.415,148.334 440,159.5C 437.45,163.192 433.95,164.858 429.5,164.5C 429.16,160.869 429.994,157.536 432,154.5C 438.133,145.682 443.466,136.348 448,126.5C 450.624,122.869 453.458,119.536 456.5,116.5 Z"/></g>
<g><path style="opacity:1" fill="#f4f4f4" d="M 616.5,116.5 C 618.5,116.5 620.5,116.5 622.5,116.5C 616.04,133.301 607.04,148.634 595.5,162.5C 592.46,165.48 590.126,165.147 588.5,161.5C 589.997,157.838 591.497,154.172 593,150.5C 598.835,142.168 604.168,133.501 609,124.5C 611.028,121.308 613.528,118.641 616.5,116.5 Z"/></g>
<g><path style="opacity:1" fill="#848484" d="M 294.5,166.5 C 294.5,167.833 294.5,169.167 294.5,170.5C 303.5,170.5 312.5,170.5 321.5,170.5C 312.348,171.494 303.015,171.827 293.5,171.5C 293.216,169.585 293.549,167.919 294.5,166.5 Z"/></g>
<g><path style="opacity:1" fill="#848484" d="M 344.5,164.5 C 344.5,166.5 344.5,168.5 344.5,170.5C 354.5,170.5 364.5,170.5 374.5,170.5C 364.347,171.494 354.014,171.828 343.5,171.5C 343.198,168.941 343.532,166.607 344.5,164.5 Z"/></g>
</svg>
